<svg width="192" height="40" viewBox="0 0 192 40" fill="none" xmlns="http://www.w3.org/2000/svg">
<path fill-rule="evenodd" clip-rule="evenodd" d="M6 0H0V8H6L6 32H0V40H6H14H26H34H40V32H34V8H40V0H34H26H14H6ZM26 32L26 8H14L14 32H26Z" fill="black"/>
<path fill-rule="evenodd" clip-rule="evenodd" d="M38 2H2V6H8L8 34H2V38H38V34H32L32 6H38V2ZM28 34L28 6H12L12 34H28Z" fill="#4E46DC"/>
<path d="M73.0206 17.1818H67.8132C67.7763 16.7509 67.6778 16.3601 67.5178 16.0092C67.3639 15.6584 67.1484 15.3568 66.8714 15.1044C66.6006 14.8459 66.2713 14.6489 65.8835 14.5135C65.4957 14.3719 65.0556 14.3011 64.5632 14.3011C63.7015 14.3011 62.9721 14.5104 62.375 14.929C61.7841 15.3475 61.3348 15.9477 61.027 16.7294C60.7254 17.5111 60.5746 18.4498 60.5746 19.5455C60.5746 20.7027 60.7285 21.6721 61.0362 22.4538C61.3501 23.2294 61.8026 23.8142 62.3935 24.2081C62.9844 24.5959 63.6953 24.7898 64.5263 24.7898C65.0002 24.7898 65.425 24.7313 65.8004 24.6143C66.1759 24.4912 66.5021 24.3158 66.7791 24.0881C67.0561 23.8603 67.2808 23.5864 67.4531 23.2663C67.6316 22.9401 67.7517 22.5739 67.8132 22.1676L73.0206 22.2045C72.959 23.0047 72.7344 23.8203 72.3466 24.6513C71.9588 25.4761 71.4079 26.2393 70.6939 26.9411C69.986 27.6366 69.1089 28.1967 68.0625 28.6214C67.0161 29.0462 65.8004 29.2585 64.4155 29.2585C62.6797 29.2585 61.1224 28.8861 59.7436 28.1413C58.371 27.3965 57.2846 26.3009 56.4844 24.8544C55.6903 23.4079 55.2933 21.6383 55.2933 19.5455C55.2933 17.4403 55.6996 15.6676 56.5121 14.2273C57.3246 12.7808 58.4202 11.6882 59.799 10.9496C61.1778 10.2048 62.7166 9.83239 64.4155 9.83239C65.6096 9.83239 66.7083 9.9955 67.7116 10.3217C68.715 10.648 69.5952 11.125 70.3523 11.7528C71.1094 12.3745 71.7188 13.1409 72.1804 14.0518C72.642 14.9628 72.9221 16.0062 73.0206 17.1818ZM82.2189 29.2585C80.7047 29.2585 79.3998 28.9692 78.3042 28.3906C77.2147 27.8059 76.3745 26.9687 75.7836 25.8793C75.1988 24.7836 74.9064 23.4725 74.9064 21.946C74.9064 20.4811 75.2019 19.2008 75.7928 18.1051C76.3837 17.0095 77.2177 16.157 78.2949 15.5476C79.3721 14.9382 80.6432 14.6335 82.1081 14.6335C83.1792 14.6335 84.1486 14.7997 85.0165 15.1321C85.8844 15.4645 86.6261 15.9477 87.2417 16.5817C87.8572 17.2095 88.3311 17.9728 88.6635 18.8714C88.9959 19.7701 89.1621 20.7827 89.1621 21.9091V23.0909H76.4945V20.2841H84.4718C84.4656 19.8778 84.361 19.5208 84.1578 19.2131C83.9609 18.8991 83.6931 18.656 83.3546 18.4837C83.0222 18.3052 82.6436 18.2159 82.2189 18.2159C81.8065 18.2159 81.428 18.3052 81.0833 18.4837C80.7386 18.656 80.4616 18.8961 80.2523 19.2038C80.0492 19.5116 79.9415 19.8717 79.9292 20.2841V23.3125C79.9292 23.768 80.0246 24.1742 80.2154 24.5312C80.4062 24.8883 80.6801 25.1683 81.0371 25.3714C81.3941 25.5746 81.825 25.6761 82.3297 25.6761C82.6806 25.6761 83.0007 25.6269 83.29 25.5284C83.5854 25.4299 83.8378 25.2884 84.0471 25.1037C84.2563 24.9129 84.4102 24.6851 84.5087 24.4205H89.1621C89.0021 25.4053 88.6235 26.2609 88.0265 26.9872C87.4294 27.7074 86.6384 28.2675 85.6536 28.6676C84.6749 29.0616 83.53 29.2585 82.2189 29.2585ZM96.3384 21.0227V29H91.2418V14.8182H96.0799V17.5142H96.2276C96.5354 16.6155 97.0771 15.9107 97.8526 15.3999C98.6344 14.889 99.5453 14.6335 100.586 14.6335C101.589 14.6335 102.46 14.8643 103.199 15.326C103.943 15.7815 104.519 16.4093 104.925 17.2095C105.337 18.0097 105.541 18.9238 105.534 19.9517V29H100.438V21.0227C100.444 20.321 100.266 19.7701 99.9023 19.37C99.5453 18.9699 99.0468 18.7699 98.4066 18.7699C97.988 18.7699 97.6218 18.8622 97.3079 19.0469C97.0001 19.2254 96.7631 19.4839 96.5969 19.8224C96.4308 20.1548 96.3446 20.5549 96.3384 21.0227ZM125.63 17.1818H120.423C120.386 16.7509 120.287 16.3601 120.127 16.0092C119.973 15.6584 119.758 15.3568 119.481 15.1044C119.21 14.8459 118.881 14.6489 118.493 14.5135C118.105 14.3719 117.665 14.3011 117.173 14.3011C116.311 14.3011 115.581 14.5104 114.984 14.929C114.393 15.3475 113.944 15.9477 113.636 16.7294C113.335 17.5111 113.184 18.4498 113.184 19.5455C113.184 20.7027 113.338 21.6721 113.646 22.4538C113.96 23.2294 114.412 23.8142 115.003 24.2081C115.594 24.5959 116.305 24.7898 117.136 24.7898C117.61 24.7898 118.034 24.7313 118.41 24.6143C118.785 24.4912 119.112 24.3158 119.388 24.0881C119.665 23.8603 119.89 23.5864 120.062 23.2663C120.241 22.9401 120.361 22.5739 120.423 22.1676L125.63 22.2045C125.568 23.0047 125.344 23.8203 124.956 24.6513C124.568 25.4761 124.017 26.2393 123.303 26.9411C122.595 27.6366 121.718 28.1967 120.672 28.6214C119.625 29.0462 118.41 29.2585 117.025 29.2585C115.289 29.2585 113.732 28.8861 112.353 28.1413C110.98 27.3965 109.894 26.3009 109.094 24.8544C108.3 23.4079 107.903 21.6383 107.903 19.5455C107.903 17.4403 108.309 15.6676 109.121 14.2273C109.934 12.7808 111.03 11.6882 112.408 10.9496C113.787 10.2048 115.326 9.83239 117.025 9.83239C118.219 9.83239 119.318 9.9955 120.321 10.3217C121.324 10.648 122.205 11.125 122.962 11.7528C123.719 12.3745 124.328 13.1409 124.79 14.0518C125.251 14.9628 125.531 16.0062 125.63 17.1818ZM128.033 29V14.8182H133.129V29H128.033ZM130.581 13.3409C129.892 13.3409 129.301 13.1132 128.808 12.6577C128.316 12.2022 128.07 11.6544 128.07 11.0142C128.07 10.3741 128.316 9.82623 128.808 9.37074C129.301 8.91525 129.892 8.6875 130.581 8.6875C131.277 8.6875 131.868 8.91525 132.354 9.37074C132.846 9.82623 133.093 10.3741 133.093 11.0142C133.093 11.6544 132.846 12.2022 132.354 12.6577C131.868 13.1132 131.277 13.3409 130.581 13.3409ZM150.019 14.8182L145.255 29H139.346L134.581 14.8182H139.936L142.226 24.1989H142.374L144.664 14.8182H150.019ZM151.468 29V14.8182H156.565V29H151.468ZM154.017 13.3409C153.327 13.3409 152.736 13.1132 152.244 12.6577C151.752 12.2022 151.505 11.6544 151.505 11.0142C151.505 10.3741 151.752 9.82623 152.244 9.37074C152.736 8.91525 153.327 8.6875 154.017 8.6875C154.712 8.6875 155.303 8.91525 155.789 9.37074C156.282 9.82623 156.528 10.3741 156.528 11.0142C156.528 11.6544 156.282 12.2022 155.789 12.6577C155.303 13.1132 154.712 13.3409 154.017 13.3409ZM176.741 17.1818H171.534C171.497 16.7509 171.398 16.3601 171.238 16.0092C171.085 15.6584 170.869 15.3568 170.592 15.1044C170.321 14.8459 169.992 14.6489 169.604 14.5135C169.216 14.3719 168.776 14.3011 168.284 14.3011C167.422 14.3011 166.693 14.5104 166.096 14.929C165.505 15.3475 165.055 15.9477 164.748 16.7294C164.446 17.5111 164.295 18.4498 164.295 19.5455C164.295 20.7027 164.449 21.6721 164.757 22.4538C165.071 23.2294 165.523 23.8142 166.114 24.2081C166.705 24.5959 167.416 24.7898 168.247 24.7898C168.721 24.7898 169.146 24.7313 169.521 24.6143C169.897 24.4912 170.223 24.3158 170.5 24.0881C170.777 23.8603 171.001 23.5864 171.174 23.2663C171.352 22.9401 171.472 22.5739 171.534 22.1676L176.741 22.2045C176.68 23.0047 176.455 23.8203 176.067 24.6513C175.68 25.4761 175.129 26.2393 174.415 26.9411C173.707 27.6366 172.83 28.1967 171.783 28.6214C170.737 29.0462 169.521 29.2585 168.136 29.2585C166.4 29.2585 164.843 28.8861 163.464 28.1413C162.092 27.3965 161.005 26.3009 160.205 24.8544C159.411 23.4079 159.014 21.6383 159.014 19.5455C159.014 17.4403 159.42 15.6676 160.233 14.2273C161.045 12.7808 162.141 11.6882 163.52 10.9496C164.898 10.2048 166.437 9.83239 168.136 9.83239C169.33 9.83239 170.429 9.9955 171.432 10.3217C172.436 10.648 173.316 11.125 174.073 11.7528C174.83 12.3745 175.439 13.1409 175.901 14.0518C176.363 14.9628 176.643 16.0062 176.741 17.1818Z" fill="white"/>
<path d="M73.0206 17.1818V18.1818H74.1079L74.0171 17.0983L73.0206 17.1818ZM67.8132 17.1818L66.8169 17.2672L66.8953 18.1818H67.8132V17.1818ZM67.5178 16.0092L66.602 16.4109L66.6049 16.4176L66.6079 16.4242L67.5178 16.0092ZM66.8714 15.1044L66.181 15.8278L66.1894 15.8358L66.198 15.8436L66.8714 15.1044ZM65.8835 14.5135L65.5405 15.4529L65.5538 15.4576L65.8835 14.5135ZM62.375 14.929L61.801 14.1101L61.797 14.113L62.375 14.929ZM61.027 16.7294L60.0965 16.3631L60.094 16.3694L61.027 16.7294ZM61.0362 22.4538L60.1057 22.8202L60.1093 22.829L61.0362 22.4538ZM62.3935 24.2081L61.8388 25.0402L61.8448 25.0441L62.3935 24.2081ZM65.8004 24.6143L66.0978 25.5691L66.1049 25.5669L66.112 25.5646L65.8004 24.6143ZM66.7791 24.0881L67.4142 24.8605L67.4142 24.8605L66.7791 24.0881ZM67.4531 23.2663L66.5758 22.7863L66.5727 22.7922L67.4531 23.2663ZM67.8132 22.1676L67.8203 21.1676L66.9542 21.1615L66.8245 22.0178L67.8132 22.1676ZM73.0206 22.2045L74.0177 22.2812L74.0999 21.2122L73.0277 21.2046L73.0206 22.2045ZM72.3466 24.6513L73.2516 25.0768L73.2528 25.0742L72.3466 24.6513ZM70.6939 26.9411L71.3948 27.6543L71.3948 27.6543L70.6939 26.9411ZM68.0625 28.6214L67.6864 27.6949L68.0625 28.6214ZM59.7436 28.1413L59.2667 29.0203L59.2683 29.0212L59.7436 28.1413ZM56.4844 24.8544L55.6078 25.3356L55.6093 25.3385L56.4844 24.8544ZM56.5121 14.2273L57.3831 14.7186L57.3839 14.717L56.5121 14.2273ZM59.799 10.9496L60.2712 11.8311L60.2743 11.8294L59.799 10.9496ZM67.7116 10.3217L68.0209 9.37074L68.0209 9.37074L67.7116 10.3217ZM70.3523 11.7528L69.7139 12.5226L69.7177 12.5257L70.3523 11.7528ZM72.1804 14.0518L71.2884 14.5039L71.2884 14.5039L72.1804 14.0518ZM73.0206 16.1818H67.8132V18.1818H73.0206V16.1818ZM68.8096 17.0964C68.764 16.5653 68.6405 16.061 68.4276 15.5942L66.6079 16.4242C66.7151 16.6591 66.7885 16.9366 66.8169 17.2672L68.8096 17.0964ZM68.4335 15.6076C68.2247 15.1314 67.9278 14.714 67.5449 14.3652L66.198 15.8436C66.3691 15.9995 66.503 16.1853 66.602 16.4109L68.4335 15.6076ZM67.5619 14.381C67.1783 14.0148 66.7224 13.7472 66.2132 13.5694L65.5538 15.4576C65.8202 15.5506 66.0229 15.6769 66.181 15.8278L67.5619 14.381ZM66.2265 13.5741C65.7099 13.3855 65.1506 13.3011 64.5632 13.3011V15.3011C64.9606 15.3011 65.2816 15.3583 65.5406 15.4529L66.2265 13.5741ZM64.5632 13.3011C63.5344 13.3011 62.5951 13.5534 61.801 14.1101L62.949 15.7478C63.3491 15.4674 63.8686 15.3011 64.5632 15.3011V13.3011ZM61.797 14.113C61.0232 14.6611 60.4638 15.43 60.0965 16.3631L61.9575 17.0957C62.2057 16.4653 62.545 16.034 62.953 15.745L61.797 14.113ZM60.094 16.3694C59.7368 17.2953 59.5746 18.3626 59.5746 19.5455H61.5746C61.5746 18.537 61.714 17.7269 61.96 17.0894L60.094 16.3694ZM59.5746 19.5455C59.5746 20.7839 59.7383 21.8868 60.1057 22.8202L61.9667 22.0875C61.7187 21.4575 61.5746 20.6214 61.5746 19.5455H59.5746ZM60.1093 22.829C60.4848 23.7569 61.0526 24.5161 61.8388 25.0401L62.9482 23.376C62.5525 23.1123 62.2155 22.7019 61.9632 22.0786L60.1093 22.829ZM61.8448 25.0441C62.6256 25.5566 63.5353 25.7898 64.5263 25.7898V23.7898C63.8553 23.7898 63.3431 23.6352 62.9421 23.372L61.8448 25.0441ZM64.5263 25.7898C65.0811 25.7898 65.6087 25.7215 66.0978 25.5691L65.503 23.6596C65.2412 23.7411 64.9194 23.7898 64.5263 23.7898V25.7898ZM66.112 25.5646C66.5934 25.4067 67.032 25.1747 67.4142 24.8605L66.144 23.3156C65.9722 23.4569 65.7584 23.5757 65.4889 23.6641L66.112 25.5646ZM67.4142 24.8605C67.793 24.549 68.1005 24.1733 68.3336 23.7404L66.5727 22.7922C66.4611 22.9995 66.3192 23.1716 66.144 23.3156L67.4142 24.8605ZM68.3304 23.7463C68.5707 23.3072 68.7247 22.8273 68.8019 22.3174L66.8245 22.0178C66.7786 22.3204 66.6926 22.573 66.5759 22.7863L68.3304 23.7463ZM67.8061 23.1676L73.0135 23.2045L73.0277 21.2046L67.8203 21.1676L67.8061 23.1676ZM72.0235 22.1278C71.9724 22.7923 71.7845 23.4911 71.4404 24.2284L73.2528 25.0742C73.6843 24.1496 73.9457 23.2172 74.0177 22.2812L72.0235 22.1278ZM71.4416 24.2258C71.109 24.9333 70.6308 25.601 69.993 26.2278L71.3948 27.6543C72.1851 26.8777 72.8086 26.0189 73.2516 25.0768L71.4416 24.2258ZM69.993 26.2278C69.3904 26.8199 68.6283 27.3126 67.6864 27.6949L68.4386 29.548C69.5895 29.0809 70.5816 28.4533 71.3948 27.6543L69.993 26.2278ZM67.6864 27.6949C66.7832 28.0615 65.6998 28.2585 64.4155 28.2585V30.2585C65.901 30.2585 67.249 30.0309 68.4386 29.548L67.6864 27.6949ZM64.4155 28.2585C62.8274 28.2585 61.4364 27.9192 60.2189 27.2615L59.2683 29.0212C60.8084 29.8531 62.532 30.2585 64.4155 30.2585V28.2585ZM60.2205 27.2624C59.0255 26.614 58.0729 25.6602 57.3594 24.3703L55.6093 25.3385C56.4962 26.9416 57.7164 28.1791 59.2667 29.0203L60.2205 27.2624ZM57.361 24.3732C56.6668 23.1086 56.2933 21.5142 56.2933 19.5455H54.2933C54.2933 21.7623 54.7139 23.7072 55.6078 25.3356L57.361 24.3732ZM56.2933 19.5455C56.2933 17.5664 56.6752 15.9734 57.3831 14.7186L55.6411 13.736C54.7239 15.3618 54.2933 17.3143 54.2933 19.5455H56.2933ZM57.3839 14.717C58.1092 13.4259 59.0706 12.4743 60.2712 11.8311L59.3268 10.0681C57.7699 10.9022 56.54 12.1356 55.6402 13.7375L57.3839 14.717ZM60.2743 11.8294C61.495 11.17 62.8682 10.8324 64.4155 10.8324V8.83239C62.565 8.83239 60.8606 9.23954 59.3237 10.0697L60.2743 11.8294ZM64.4155 10.8324C65.5182 10.8324 66.5112 10.9829 67.4024 11.2727L68.0209 9.37074C66.9055 9.00807 65.701 8.83239 64.4155 8.83239V10.8324ZM67.4024 11.2727C68.2944 11.5627 69.061 11.9811 69.7139 12.5226L70.9906 10.9831C70.1294 10.2689 69.1355 9.73318 68.0209 9.37074L67.4024 11.2727ZM69.7177 12.5257C70.3631 13.0557 70.8867 13.7111 71.2884 14.5039L73.0724 13.5998C72.5508 12.5706 71.8556 11.6934 70.9869 10.98L69.7177 12.5257ZM71.2884 14.5039C71.6835 15.2835 71.9347 16.1984 72.0241 17.2653L74.0171 17.0983C73.9095 15.8139 73.6006 14.6422 73.0724 13.5998L71.2884 14.5039ZM78.3042 28.3906L77.8312 29.2718L77.8372 29.2749L78.3042 28.3906ZM75.7836 25.8793L74.9013 26.3501L74.9045 26.356L75.7836 25.8793ZM75.7928 18.1051L76.6729 18.5798L76.6729 18.5798L75.7928 18.1051ZM78.2949 15.5476L78.7873 16.418L78.7873 16.418L78.2949 15.5476ZM85.0165 15.1321L85.3742 14.1982L85.3742 14.1982L85.0165 15.1321ZM87.2417 16.5817L86.5242 17.2783L86.5276 17.2817L87.2417 16.5817ZM88.6635 18.8714L87.7256 19.2183L87.7256 19.2183L88.6635 18.8714ZM89.1621 23.0909V24.0909H90.1621V23.0909H89.1621ZM76.4945 23.0909H75.4945V24.0909H76.4945V23.0909ZM76.4945 20.2841V19.2841H75.4945V20.2841H76.4945ZM84.4718 20.2841V21.2841H85.487L85.4717 20.2689L84.4718 20.2841ZM84.1578 19.2131L83.3108 19.7446L83.3169 19.7543L83.3232 19.7639L84.1578 19.2131ZM83.3546 18.4837L82.8815 19.3647L82.8911 19.3698L82.9009 19.3748L83.3546 18.4837ZM81.0833 18.4837L81.5305 19.3781L81.5368 19.3749L81.5431 19.3717L81.0833 18.4837ZM80.2523 19.2038L79.4253 18.6415L79.4177 18.653L80.2523 19.2038ZM79.9292 20.2841L78.9296 20.2543L78.9292 20.2692V20.2841H79.9292ZM80.2154 24.5312L79.3334 25.0026L79.3334 25.0026L80.2154 24.5312ZM81.0371 25.3714L80.5426 26.2406L80.5426 26.2406L81.0371 25.3714ZM83.29 25.5284L82.9737 24.5797L82.9677 24.5818L83.29 25.5284ZM84.0471 25.1037L84.7087 25.8535L84.7148 25.8481L84.7208 25.8426L84.0471 25.1037ZM84.5087 24.4205V23.4205H83.8138L83.5715 24.0717L84.5087 24.4205ZM89.1621 24.4205L90.1492 24.5809L90.3377 23.4205H89.1621V24.4205ZM88.0265 26.9872L88.7963 27.6255L88.799 27.6222L88.0265 26.9872ZM85.6536 28.6676L86.027 29.5953L86.03 29.5941L85.6536 28.6676ZM82.2189 28.2585C80.8318 28.2585 79.6943 27.9939 78.7711 27.5064L77.8372 29.2749C79.1053 29.9446 80.5777 30.2585 82.2189 30.2585V28.2585ZM78.7771 27.5095C77.8599 27.0173 77.1607 26.3209 76.6626 25.4025L74.9045 26.356C75.5882 27.6166 76.5694 28.5945 77.8312 29.2717L78.7771 27.5095ZM76.6658 25.4084C76.1741 24.4872 75.9064 23.3454 75.9064 21.946H73.9064C73.9064 23.5996 74.2235 25.08 74.9013 26.3501L76.6658 25.4084ZM75.9064 21.946C75.9064 20.6174 76.1735 19.5058 76.6729 18.5798L74.9126 17.6304C74.2302 18.8957 73.9064 20.3447 73.9064 21.946H75.9064ZM76.6729 18.5798C77.175 17.6489 77.8751 16.934 78.7873 16.418L77.8025 14.6772C76.5604 15.3799 75.5924 16.37 74.9126 17.6304L76.6729 18.5798ZM78.7873 16.418C79.6888 15.908 80.7839 15.6335 82.1081 15.6335V13.6335C80.5024 13.6335 79.0554 13.9685 77.8025 14.6772L78.7873 16.418ZM82.1081 15.6335C83.0753 15.6335 83.9211 15.7834 84.6589 16.066L85.3742 14.1982C84.3761 13.816 83.283 13.6335 82.1081 13.6335V15.6335ZM84.6589 16.066C85.3982 16.3491 86.0151 16.754 86.5242 17.2783L87.9591 15.8851C87.2371 15.1414 86.3706 14.5799 85.3742 14.1982L84.6589 16.066ZM86.5276 17.2817C87.0359 17.8002 87.4377 18.4399 87.7256 19.2183L89.6014 18.5246C89.2246 17.5057 88.6785 16.6188 87.9557 15.8816L86.5276 17.2817ZM87.7256 19.2183C88.0104 19.9884 88.1621 20.8807 88.1621 21.9091H90.1621C90.1621 20.6846 89.9814 19.5519 89.6014 18.5246L87.7256 19.2183ZM88.1621 21.9091V23.0909H90.1621V21.9091H88.1621ZM89.1621 22.0909H76.4945V24.0909H89.1621V22.0909ZM77.4945 23.0909V20.2841H75.4945V23.0909H77.4945ZM76.4945 21.2841H84.4718V19.2841H76.4945V21.2841ZM85.4717 20.2689C85.4629 19.6921 85.3112 19.1451 84.9925 18.6622L83.3232 19.7639C83.4108 19.8965 83.4683 20.0635 83.4719 20.2992L85.4717 20.2689ZM85.0049 18.6816C84.7093 18.2104 84.3038 17.8448 83.8083 17.5925L82.9009 19.3748C83.0824 19.4672 83.2125 19.5879 83.3108 19.7446L85.0049 18.6816ZM83.8277 17.6027C83.3324 17.3367 82.7877 17.2159 82.2189 17.2159V19.2159C82.4996 19.2159 82.712 19.2737 82.8815 19.3647L83.8277 17.6027ZM82.2189 17.2159C81.6568 17.2159 81.1191 17.339 80.6234 17.5957L81.5431 19.3717C81.7369 19.2713 81.9563 19.2159 82.2189 19.2159V17.2159ZM80.6361 17.5892C80.1441 17.8352 79.7343 18.1873 79.4254 18.6415L81.0792 19.7661C81.1889 19.6048 81.333 19.4768 81.5305 19.3781L80.6361 17.5892ZM79.4177 18.653C79.1005 19.1337 78.9468 19.6789 78.9296 20.2543L80.9287 20.3139C80.9362 20.0644 80.9979 19.8895 81.0869 19.7547L79.4177 18.653ZM78.9292 20.2841V23.3125H80.9292V20.2841H78.9292ZM78.9292 23.3125C78.9292 23.9116 79.0558 24.4832 79.3334 25.0026L81.0973 24.0599C80.9933 23.8653 80.9292 23.6244 80.9292 23.3125H78.9292ZM79.3334 25.0026C79.6146 25.5287 80.024 25.9456 80.5426 26.2406L81.5316 24.5023C81.3362 24.3911 81.1978 24.2478 81.0973 24.0599L79.3334 25.0026ZM80.5426 26.2406C81.0812 26.5471 81.691 26.6761 82.3297 26.6761V24.6761C81.959 24.6761 81.7071 24.6021 81.5316 24.5023L80.5426 26.2406ZM82.3297 26.6761C82.7742 26.6761 83.205 26.6137 83.6122 26.4751L82.9677 24.5818C82.7963 24.6401 82.5869 24.6761 82.3297 24.6761V26.6761ZM83.6062 26.4771C84.0142 26.3411 84.3877 26.1367 84.7087 25.8535L83.3854 24.3539C83.2878 24.44 83.1566 24.5188 82.9737 24.5797L83.6062 26.4771ZM84.7208 25.8426C85.0474 25.5449 85.2918 25.1835 85.4459 24.7692L83.5715 24.0717C83.5287 24.1868 83.4653 24.2809 83.3733 24.3647L84.7208 25.8426ZM84.5087 25.4205H89.1621V23.4205H84.5087V25.4205ZM88.1751 24.2601C88.0416 25.0816 87.7319 25.7708 87.254 26.3522L88.799 27.6222C89.5151 26.751 89.9626 25.729 90.1492 24.5809L88.1751 24.2601ZM87.2566 26.349C86.7785 26.9256 86.1302 27.3946 85.2772 27.7411L86.03 29.5941C87.1467 29.1404 88.0802 28.4891 88.7963 27.6255L87.2566 26.349ZM85.2802 27.7399C84.4452 28.0761 83.4321 28.2585 82.2189 28.2585V30.2585C83.6279 30.2585 84.9046 30.0471 86.027 29.5953L85.2802 27.7399ZM96.3384 21.0227L95.3384 21.0096V21.0227H96.3384ZM96.3384 29V30H97.3384V29H96.3384ZM91.2418 29H90.2418V30H91.2418V29ZM91.2418 14.8182V13.8182H90.2418V14.8182H91.2418ZM96.0799 14.8182H97.0799V13.8182H96.0799V14.8182ZM96.0799 17.5142H95.0799V18.5142H96.0799V17.5142ZM96.2276 17.5142V18.5142H96.9422L97.1737 17.8382L96.2276 17.5142ZM97.8526 15.3999L97.3056 14.5628L97.3025 14.5648L97.8526 15.3999ZM103.199 15.326L102.668 16.174L102.677 16.1791L103.199 15.326ZM104.925 17.2095L104.033 17.6622L104.036 17.6676L104.925 17.2095ZM105.534 19.9517L104.534 19.9457V19.9517H105.534ZM105.534 29V30H106.534V29H105.534ZM100.438 29H99.4379V30H100.438V29ZM100.438 21.0227L99.4379 21.014V21.0227H100.438ZM99.9023 19.37L99.1562 20.0358L99.1619 20.0421L99.9023 19.37ZM97.3079 19.0469L97.8096 19.9119L97.8149 19.9088L97.3079 19.0469ZM96.5969 19.8224L97.4914 20.2697L97.4946 20.2631L96.5969 19.8224ZM95.3384 21.0227V29H97.3384V21.0227H95.3384ZM96.3384 28H91.2418V30H96.3384V28ZM92.2418 29V14.8182H90.2418V29H92.2418ZM91.2418 15.8182H96.0799V13.8182H91.2418V15.8182ZM95.0799 14.8182V17.5142H97.0799V14.8182H95.0799ZM96.0799 18.5142H96.2276V16.5142H96.0799V18.5142ZM97.1737 17.8382C97.4115 17.1439 97.8166 16.621 98.4027 16.235L97.3025 14.5648C96.3375 15.2004 95.6593 16.0872 95.2816 17.1902L97.1737 17.8382ZM98.3997 16.2369C99.0006 15.8442 99.7167 15.6335 100.586 15.6335V13.6335C99.3739 13.6335 98.2681 13.9337 97.3056 14.5628L98.3997 16.2369ZM100.586 15.6335C101.431 15.6335 102.112 15.826 102.669 16.174L103.729 14.478C102.808 13.9027 101.747 13.6335 100.586 13.6335V15.6335ZM102.677 16.1791C103.259 16.5352 103.709 17.0223 104.033 17.6622L105.817 16.7568C105.329 15.7963 104.628 15.0278 103.72 14.4729L102.677 16.1791ZM104.036 17.6676C104.365 18.3052 104.54 19.0561 104.534 19.9457L106.534 19.9577C106.541 18.7914 106.31 17.7143 105.814 16.7514L104.036 17.6676ZM104.534 19.9517V29H106.534V19.9517H104.534ZM105.534 28H100.438V30H105.534V28ZM101.438 29V21.0227H99.4379V29H101.438ZM101.438 21.0315C101.445 20.1557 101.221 19.3346 100.643 18.6979L99.1619 20.0421C99.3103 20.2057 99.4425 20.4864 99.4379 21.014L101.438 21.0315ZM100.648 18.7042C100.065 18.0503 99.2714 17.7699 98.4066 17.7699V19.7699C98.8221 19.7699 99.0257 19.8896 99.1562 20.0358L100.648 18.7042ZM98.4066 17.7699C97.8368 17.7699 97.2902 17.8971 96.8009 18.1849L97.8149 19.9088C97.9534 19.8273 98.1393 19.7699 98.4066 19.7699V17.7699ZM96.8062 18.1818C96.3169 18.4656 95.9471 18.877 95.6993 19.3818L97.4946 20.2631C97.5792 20.0909 97.6834 19.9851 97.8096 19.9119L96.8062 18.1818ZM95.7025 19.3752C95.4537 19.8728 95.3461 20.4289 95.3385 21.0096L97.3383 21.0359C97.343 20.6809 97.4078 20.4369 97.4914 20.2697L95.7025 19.3752ZM125.63 17.1818V18.1818H126.717L126.626 17.0983L125.63 17.1818ZM120.423 17.1818L119.426 17.2672L119.505 18.1818H120.423V17.1818ZM120.127 16.0092L119.211 16.4109L119.214 16.4176L119.217 16.4242L120.127 16.0092ZM119.481 15.1044L118.79 15.8278L118.799 15.8358L118.807 15.8436L119.481 15.1044ZM118.493 14.5135L118.15 15.4529L118.163 15.4576L118.493 14.5135ZM114.984 14.929L114.41 14.1101L114.406 14.113L114.984 14.929ZM113.636 16.7294L112.706 16.3631L112.703 16.3694L113.636 16.7294ZM113.646 22.4538L112.715 22.8202L112.719 22.829L113.646 22.4538ZM115.003 24.2081L114.448 25.0402L114.454 25.0441L115.003 24.2081ZM118.41 24.6143L118.707 25.5691L118.714 25.5669L118.721 25.5646L118.41 24.6143ZM119.388 24.0881L120.024 24.8605L120.024 24.8605L119.388 24.0881ZM120.062 23.2663L119.185 22.7863L119.182 22.7922L120.062 23.2663ZM120.423 22.1676L120.43 21.1676L119.564 21.1615L119.434 22.0178L120.423 22.1676ZM125.63 22.2045L126.627 22.2812L126.709 21.2122L125.637 21.2046L125.63 22.2045ZM124.956 24.6513L125.861 25.0768L125.862 25.0742L124.956 24.6513ZM123.303 26.9411L124.004 27.6543L124.004 27.6543L123.303 26.9411ZM120.672 28.6214L120.296 27.6949L120.672 28.6214ZM112.353 28.1413L111.876 29.0203L111.878 29.0212L112.353 28.1413ZM109.094 24.8544L108.217 25.3356L108.219 25.3385L109.094 24.8544ZM109.121 14.2273L109.992 14.7186L109.993 14.717L109.121 14.2273ZM112.408 10.9496L112.881 11.8311L112.884 11.8294L112.408 10.9496ZM120.321 10.3217L120.63 9.37074L120.63 9.37074L120.321 10.3217ZM122.962 11.7528L122.323 12.5226L122.327 12.5257L122.962 11.7528ZM124.79 14.0518L123.898 14.5039L123.898 14.5039L124.79 14.0518ZM125.63 16.1818H120.423V18.1818H125.63V16.1818ZM121.419 17.0964C121.373 16.5653 121.25 16.061 121.037 15.5942L119.217 16.4242C119.324 16.6591 119.398 16.9366 119.426 17.2672L121.419 17.0964ZM121.043 15.6076C120.834 15.1314 120.537 14.714 120.154 14.3652L118.807 15.8436C118.978 15.9995 119.112 16.1853 119.211 16.4109L121.043 15.6076ZM120.171 14.381C119.788 14.0148 119.332 13.7472 118.823 13.5694L118.163 15.4576C118.43 15.5506 118.632 15.6769 118.79 15.8278L120.171 14.381ZM118.836 13.5741C118.319 13.3855 117.76 13.3011 117.173 13.3011V15.3011C117.57 15.3011 117.891 15.3583 118.15 15.4529L118.836 13.5741ZM117.173 13.3011C116.144 13.3011 115.204 13.5534 114.41 14.1101L115.558 15.7478C115.958 15.4674 116.478 15.3011 117.173 15.3011V13.3011ZM114.406 14.113C113.633 14.6611 113.073 15.43 112.706 16.3631L114.567 17.0957C114.815 16.4653 115.154 16.034 115.562 15.745L114.406 14.113ZM112.703 16.3694C112.346 17.2953 112.184 18.3626 112.184 19.5455H114.184C114.184 18.537 114.323 17.7269 114.569 17.0894L112.703 16.3694ZM112.184 19.5455C112.184 20.7839 112.348 21.8868 112.715 22.8202L114.576 22.0875C114.328 21.4575 114.184 20.6214 114.184 19.5455H112.184ZM112.719 22.829C113.094 23.7569 113.662 24.5161 114.448 25.0401L115.558 23.376C115.162 23.1123 114.825 22.7019 114.573 22.0786L112.719 22.829ZM114.454 25.0441C115.235 25.5566 116.145 25.7898 117.136 25.7898V23.7898C116.465 23.7898 115.952 23.6352 115.551 23.372L114.454 25.0441ZM117.136 25.7898C117.69 25.7898 118.218 25.7215 118.707 25.5691L118.112 23.6596C117.851 23.7411 117.529 23.7898 117.136 23.7898V25.7898ZM118.721 25.5646C119.203 25.4067 119.641 25.1747 120.024 24.8605L118.753 23.3156C118.582 23.4569 118.368 23.5757 118.098 23.6641L118.721 25.5646ZM120.024 24.8605C120.402 24.549 120.71 24.1733 120.943 23.7404L119.182 22.7922C119.07 22.9995 118.929 23.1716 118.753 23.3156L120.024 24.8605ZM120.94 23.7463C121.18 23.3072 121.334 22.8273 121.411 22.3174L119.434 22.0178C119.388 22.3204 119.302 22.573 119.185 22.7863L120.94 23.7463ZM120.415 23.1676L125.623 23.2045L125.637 21.2046L120.43 21.1676L120.415 23.1676ZM124.633 22.1278C124.582 22.7923 124.394 23.4911 124.05 24.2284L125.862 25.0742C126.294 24.1496 126.555 23.2172 126.627 22.2812L124.633 22.1278ZM124.051 24.2258C123.718 24.9333 123.24 25.601 122.602 26.2278L124.004 27.6543C124.794 26.8777 125.418 26.0189 125.861 25.0768L124.051 24.2258ZM122.602 26.2278C122 26.8199 121.238 27.3126 120.296 27.6949L121.048 29.548C122.199 29.0809 123.191 28.4533 124.004 27.6543L122.602 26.2278ZM120.296 27.6949C119.393 28.0615 118.309 28.2585 117.025 28.2585V30.2585C118.51 30.2585 119.858 30.0309 121.048 29.548L120.296 27.6949ZM117.025 28.2585C115.437 28.2585 114.046 27.9192 112.828 27.2615L111.878 29.0212C113.418 29.8531 115.141 30.2585 117.025 30.2585V28.2585ZM112.83 27.2624C111.635 26.614 110.682 25.6602 109.969 24.3703L108.219 25.3385C109.106 26.9416 110.326 28.1791 111.876 29.0203L112.83 27.2624ZM109.97 24.3732C109.276 23.1086 108.903 21.5142 108.903 19.5455H106.903C106.903 21.7623 107.323 23.7072 108.217 25.3356L109.97 24.3732ZM108.903 19.5455C108.903 17.5664 109.285 15.9734 109.992 14.7186L108.25 13.736C107.333 15.3618 106.903 17.3143 106.903 19.5455H108.903ZM109.993 14.717C110.719 13.4259 111.68 12.4743 112.881 11.8311L111.936 10.0681C110.379 10.9022 109.149 12.1356 108.25 13.7375L109.993 14.717ZM112.884 11.8294C114.104 11.17 115.478 10.8324 117.025 10.8324V8.83239C115.174 8.83239 113.47 9.23954 111.933 10.0697L112.884 11.8294ZM117.025 10.8324C118.128 10.8324 119.121 10.9829 120.012 11.2727L120.63 9.37074C119.515 9.00807 118.31 8.83239 117.025 8.83239V10.8324ZM120.012 11.2727C120.904 11.5627 121.67 11.9811 122.323 12.5226L123.6 10.9831C122.739 10.2689 121.745 9.73318 120.63 9.37074L120.012 11.2727ZM122.327 12.5257C122.972 13.0557 123.496 13.7111 123.898 14.5039L125.682 13.5998C125.16 12.5706 124.465 11.6934 123.596 10.98L122.327 12.5257ZM123.898 14.5039C124.293 15.2835 124.544 16.1984 124.633 17.2653L126.626 17.0983C126.519 15.8139 126.21 14.6422 125.682 13.5998L123.898 14.5039ZM128.033 29H127.033V30H128.033V29ZM128.033 14.8182V13.8182H127.033V14.8182H128.033ZM133.129 14.8182H134.129V13.8182H133.129V14.8182ZM133.129 29V30H134.129V29H133.129ZM128.808 12.6577L128.129 13.3918L128.129 13.3918L128.808 12.6577ZM128.808 9.37074L128.129 8.63664L128.129 8.63664L128.808 9.37074ZM132.354 9.37074L131.67 10.1006L131.675 10.1048L132.354 9.37074ZM132.354 12.6577L131.675 11.9236L131.67 11.9278L132.354 12.6577ZM129.033 29V14.8182H127.033V29H129.033ZM128.033 15.8182H133.129V13.8182H128.033V15.8182ZM132.129 14.8182V29H134.129V14.8182H132.129ZM133.129 28H128.033V30H133.129V28ZM130.581 12.3409C130.136 12.3409 129.789 12.2029 129.487 11.9236L128.129 13.3918C128.812 14.0234 129.648 14.3409 130.581 14.3409V12.3409ZM129.487 11.9236C129.189 11.6471 129.07 11.3609 129.07 11.0142H127.07C127.07 11.9478 127.443 12.7572 128.129 13.3918L129.487 11.9236ZM129.07 11.0142C129.07 10.6675 129.189 10.3813 129.487 10.1048L128.129 8.63664C127.443 9.27119 127.07 10.0806 127.07 11.0142H129.07ZM129.487 10.1048C129.789 9.82547 130.136 9.6875 130.581 9.6875V7.6875C129.648 7.6875 128.812 8.00503 128.129 8.63664L129.487 10.1048ZM130.581 9.6875C131.035 9.6875 131.378 9.82689 131.67 10.1006L133.038 8.64091C132.357 8.0036 131.518 7.6875 130.581 7.6875V9.6875ZM131.675 10.1048C131.974 10.3813 132.093 10.6675 132.093 11.0142H134.093C134.093 10.0806 133.719 9.27119 133.033 8.63664L131.675 10.1048ZM132.093 11.0142C132.093 11.3609 131.974 11.6471 131.675 11.9236L133.033 13.3918C133.719 12.7572 134.093 11.9478 134.093 11.0142H132.093ZM131.67 11.9278C131.378 12.2015 131.035 12.3409 130.581 12.3409V14.3409C131.518 14.3409 132.357 14.0248 133.038 13.3875L131.67 11.9278ZM150.019 14.8182L150.967 15.1366L151.41 13.8182H150.019V14.8182ZM145.255 29V30H145.974L146.203 29.3184L145.255 29ZM139.346 29L138.398 29.3184L138.627 30H139.346V29ZM134.581 14.8182V13.8182H133.19L133.633 15.1366L134.581 14.8182ZM139.936 14.8182L140.908 14.581L140.722 13.8182H139.936V14.8182ZM142.226 24.1989L141.255 24.436L141.441 25.1989H142.226V24.1989ZM142.374 24.1989V25.1989H143.159L143.345 24.436L142.374 24.1989ZM144.664 14.8182V13.8182H143.878L143.692 14.581L144.664 14.8182ZM149.071 14.4997L144.307 28.6816L146.203 29.3184L150.967 15.1366L149.071 14.4997ZM145.255 28H139.346V30H145.255V28ZM140.293 28.6816L135.529 14.4997L133.633 15.1366L138.398 29.3184L140.293 28.6816ZM134.581 15.8182H139.936V13.8182H134.581V15.8182ZM138.965 15.0553L141.255 24.436L143.198 23.9617L140.908 14.581L138.965 15.0553ZM142.226 25.1989H142.374V23.1989H142.226V25.1989ZM143.345 24.436L145.635 15.0553L143.692 14.581L141.402 23.9617L143.345 24.436ZM144.664 15.8182H150.019V13.8182H144.664V15.8182ZM151.468 29H150.468V30H151.468V29ZM151.468 14.8182V13.8182H150.468V14.8182H151.468ZM156.565 14.8182H157.565V13.8182H156.565V14.8182ZM156.565 29V30H157.565V29H156.565ZM152.244 12.6577L151.565 13.3918L151.565 13.3918L152.244 12.6577ZM152.244 9.37074L151.565 8.63664L151.565 8.63664L152.244 9.37074ZM155.789 9.37074L155.106 10.1006L155.11 10.1048L155.789 9.37074ZM155.789 12.6577L155.11 11.9236L155.106 11.9278L155.789 12.6577ZM152.468 29V14.8182H150.468V29H152.468ZM151.468 15.8182H156.565V13.8182H151.468V15.8182ZM155.565 14.8182V29H157.565V14.8182H155.565ZM156.565 28H151.468V30H156.565V28ZM154.017 12.3409C153.571 12.3409 153.225 12.2029 152.923 11.9236L151.565 13.3918C152.248 14.0234 153.083 14.3409 154.017 14.3409V12.3409ZM152.923 11.9236C152.624 11.6471 152.505 11.3609 152.505 11.0142H150.505C150.505 11.9478 150.879 12.7572 151.565 13.3918L152.923 11.9236ZM152.505 11.0142C152.505 10.6675 152.624 10.3813 152.923 10.1048L151.565 8.63664C150.879 9.27119 150.505 10.0806 150.505 11.0142H152.505ZM152.923 10.1048C153.225 9.82547 153.571 9.6875 154.017 9.6875V7.6875C153.083 7.6875 152.248 8.00503 151.565 8.63664L152.923 10.1048ZM154.017 9.6875C154.471 9.6875 154.814 9.82689 155.106 10.1006L156.473 8.64091C155.793 8.0036 154.954 7.6875 154.017 7.6875V9.6875ZM155.11 10.1048C155.409 10.3813 155.528 10.6675 155.528 11.0142H157.528C157.528 10.0806 157.154 9.27119 156.468 8.63664L155.11 10.1048ZM155.528 11.0142C155.528 11.3609 155.409 11.6471 155.11 11.9236L156.468 13.3918C157.154 12.7572 157.528 11.9478 157.528 11.0142H155.528ZM155.106 11.9278C154.814 12.2015 154.471 12.3409 154.017 12.3409V14.3409C154.954 14.3409 155.793 14.0248 156.473 13.3875L155.106 11.9278ZM176.741 17.1818V18.1818H177.829L177.738 17.0983L176.741 17.1818ZM171.534 17.1818L170.538 17.2672L170.616 18.1818H171.534V17.1818ZM171.238 16.0092L170.323 16.4109L170.326 16.4176L170.329 16.4242L171.238 16.0092ZM170.592 15.1044L169.902 15.8278L169.91 15.8358L169.919 15.8436L170.592 15.1044ZM169.604 14.5135L169.261 15.4529L169.275 15.4576L169.604 14.5135ZM166.096 14.929L165.522 14.1101L165.518 14.113L166.096 14.929ZM164.748 16.7294L163.817 16.3631L163.815 16.3694L164.748 16.7294ZM164.757 22.4538L163.826 22.8202L163.83 22.829L164.757 22.4538ZM166.114 24.2081L165.559 25.0402L165.566 25.0441L166.114 24.2081ZM169.521 24.6143L169.819 25.5691L169.826 25.5669L169.833 25.5646L169.521 24.6143ZM170.5 24.0881L171.135 24.8605L171.135 24.8605L170.5 24.0881ZM171.174 23.2663L170.297 22.7863L170.293 22.7922L171.174 23.2663ZM171.534 22.1676L171.541 21.1676L170.675 21.1615L170.545 22.0178L171.534 22.1676ZM176.741 22.2045L177.738 22.2812L177.821 21.2122L176.748 21.2046L176.741 22.2045ZM176.067 24.6513L176.972 25.0768L176.973 25.0742L176.067 24.6513ZM174.415 26.9411L175.115 27.6543L175.116 27.6543L174.415 26.9411ZM171.783 28.6214L171.407 27.6949L171.783 28.6214ZM163.464 28.1413L162.987 29.0203L162.989 29.0212L163.464 28.1413ZM160.205 24.8544L159.328 25.3356L159.33 25.3385L160.205 24.8544ZM160.233 14.2273L161.104 14.7186L161.105 14.717L160.233 14.2273ZM163.52 10.9496L163.992 11.8311L163.995 11.8294L163.52 10.9496ZM171.432 10.3217L171.742 9.37074L171.742 9.37074L171.432 10.3217ZM174.073 11.7528L173.435 12.5226L173.438 12.5257L174.073 11.7528ZM175.901 14.0518L175.009 14.5039L175.009 14.5039L175.901 14.0518ZM176.741 16.1818H171.534V18.1818H176.741V16.1818ZM172.53 17.0964C172.485 16.5653 172.361 16.061 172.148 15.5942L170.329 16.4242C170.436 16.6591 170.509 16.9366 170.538 17.2672L172.53 17.0964ZM172.154 15.6076C171.945 15.1314 171.648 14.714 171.266 14.3652L169.919 15.8436C170.09 15.9995 170.224 16.1853 170.323 16.4109L172.154 15.6076ZM171.283 14.381C170.899 14.0148 170.443 13.7472 169.934 13.5694L169.275 15.4576C169.541 15.5506 169.744 15.6769 169.902 15.8278L171.283 14.381ZM169.947 13.5741C169.431 13.3855 168.871 13.3011 168.284 13.3011V15.3011C168.681 15.3011 169.002 15.3583 169.261 15.4529L169.947 13.5741ZM168.284 13.3011C167.255 13.3011 166.316 13.5534 165.522 14.1101L166.67 15.7478C167.07 15.4674 167.589 15.3011 168.284 15.3011V13.3011ZM165.518 14.113C164.744 14.6611 164.185 15.43 163.817 16.3631L165.678 17.0957C165.926 16.4653 166.266 16.034 166.674 15.745L165.518 14.113ZM163.815 16.3694C163.457 17.2953 163.295 18.3626 163.295 19.5455H165.295C165.295 18.537 165.435 17.7269 165.681 17.0894L163.815 16.3694ZM163.295 19.5455C163.295 20.7839 163.459 21.8868 163.826 22.8202L165.687 22.0875C165.439 21.4575 165.295 20.6214 165.295 19.5455H163.295ZM163.83 22.829C164.206 23.7569 164.773 24.5161 165.559 25.0401L166.669 23.376C166.273 23.1123 165.936 22.7019 165.684 22.0786L163.83 22.829ZM165.566 25.0441C166.346 25.5566 167.256 25.7898 168.247 25.7898V23.7898C167.576 23.7898 167.064 23.6352 166.663 23.372L165.566 25.0441ZM168.247 25.7898C168.802 25.7898 169.329 25.7215 169.819 25.5691L169.224 23.6596C168.962 23.7411 168.64 23.7898 168.247 23.7898V25.7898ZM169.833 25.5646C170.314 25.4067 170.753 25.1747 171.135 24.8605L169.865 23.3156C169.693 23.4569 169.479 23.5757 169.21 23.6641L169.833 25.5646ZM171.135 24.8605C171.514 24.549 171.821 24.1733 172.054 23.7404L170.293 22.7922C170.182 22.9995 170.04 23.1716 169.865 23.3156L171.135 24.8605ZM172.051 23.7463C172.291 23.3072 172.445 22.8273 172.523 22.3174L170.545 22.0178C170.499 22.3204 170.413 22.573 170.297 22.7863L172.051 23.7463ZM171.527 23.1676L176.734 23.2045L176.748 21.2046L171.541 21.1676L171.527 23.1676ZM175.744 22.1278C175.693 22.7923 175.505 23.4911 175.161 24.2284L176.973 25.0742C177.405 24.1496 177.666 23.2172 177.738 22.2812L175.744 22.1278ZM175.162 24.2258C174.83 24.9333 174.351 25.601 173.714 26.2278L175.116 27.6543C175.906 26.8777 176.529 26.0189 176.972 25.0768L175.162 24.2258ZM173.714 26.2278C173.111 26.8199 172.349 27.3126 171.407 27.6949L172.159 29.548C173.31 29.0809 174.302 28.4533 175.115 27.6543L173.714 26.2278ZM171.407 27.6949C170.504 28.0615 169.421 28.2585 168.136 28.2585V30.2585C169.622 30.2585 170.97 30.0309 172.159 29.548L171.407 27.6949ZM168.136 28.2585C166.548 28.2585 165.157 27.9192 163.94 27.2615L162.989 29.0212C164.529 29.8531 166.253 30.2585 168.136 30.2585V28.2585ZM163.941 27.2624C162.746 26.614 161.794 25.6602 161.08 24.3703L159.33 25.3385C160.217 26.9416 161.437 28.1791 162.987 29.0203L163.941 27.2624ZM161.082 24.3732C160.387 23.1086 160.014 21.5142 160.014 19.5455H158.014C158.014 21.7623 158.435 23.7072 159.328 25.3356L161.082 24.3732ZM160.014 19.5455C160.014 17.5664 160.396 15.9734 161.104 14.7186L159.362 13.736C158.445 15.3618 158.014 17.3143 158.014 19.5455H160.014ZM161.105 14.717C161.83 13.4259 162.791 12.4743 163.992 11.8311L163.047 10.0681C161.491 10.9022 160.261 12.1356 159.361 13.7375L161.105 14.717ZM163.995 11.8294C165.216 11.17 166.589 10.8324 168.136 10.8324V8.83239C166.286 8.83239 164.581 9.23954 163.044 10.0697L163.995 11.8294ZM168.136 10.8324C169.239 10.8324 170.232 10.9829 171.123 11.2727L171.742 9.37074C170.626 9.00807 169.422 8.83239 168.136 8.83239V10.8324ZM171.123 11.2727C172.015 11.5627 172.782 11.9811 173.435 12.5226L174.711 10.9831C173.85 10.2689 172.856 9.73318 171.742 9.37074L171.123 11.2727ZM173.438 12.5257C174.084 13.0557 174.607 13.7111 175.009 14.5039L176.793 13.5998C176.272 12.5706 175.576 11.6934 174.708 10.98L173.438 12.5257ZM175.009 14.5039C175.404 15.2835 175.655 16.1984 175.745 17.2653L177.738 17.0983C177.63 15.8139 177.321 14.6422 176.793 13.5998L175.009 14.5039Z" fill="black"/>
</svg>
